<?xml version="1.0" standalone="no"?>
<!DOCTYPE svg PUBLIC "-//W3C//DTD SVG 20010904//EN"
 "http://www.w3.org/TR/2001/REC-SVG-20010904/DTD/svg10.dtd">
<svg version="1.0" xmlns="http://www.w3.org/2000/svg"
 width="500.000000pt" height="358.000000pt" viewBox="0 0 500.000000 358.000000"
 preserveAspectRatio="xMidYMid meet">
<metadata>
Created by potrace 1.16, written by Peter Selinger 2001-2019
</metadata>
<g transform="translate(0.000000,358.000000) scale(0.100000,-0.100000)"
fill="#000000" stroke="none">
<path d="M528 1975 l2 -1569 29 34 c16 19 240 289 500 600 l471 565 0 936 c0
515 -3 950 -6 968 l-6 31 -497 2 -496 3 3 -1570z"/>
<path d="M31 1818 c0 -1308 3 -1731 12 -1758 l12 -35 88 -3 87 -3 0 1761 0
1760 -100 0 -100 0 1 -1722z"/>
<path d="M3486 3494 c-3 -26 -6 -458 -6 -960 l0 -913 495 -600 c272 -330 499
-602 505 -606 7 -4 10 504 10 1559 l0 1566 -499 0 -498 0 -7 -46z"/>
<path d="M4780 1780 l0 -1760 89 0 89 0 14 33 c11 26 14 327 16 1687 2 910 0
1688 -3 1728 l-7 72 -99 0 -99 0 0 -1760z"/>
<path d="M1650 1081 c-475 -572 -866 -1044 -868 -1050 -3 -8 164 -11 591 -11
l594 0 263 455 c144 250 266 455 270 455 4 0 126 -205 270 -455 l262 -455 609
0 c335 0 609 2 609 5 0 9 -1722 2095 -1729 2095 -3 0 -395 -468 -871 -1039z"/>
</g>
</svg>
