<?xml version="1.0" standalone="no"?>
<!DOCTYPE svg PUBLIC "-//W3C//DTD SVG 20010904//EN"
 "http://www.w3.org/TR/2001/REC-SVG-20010904/DTD/svg10.dtd">
<svg version="1.0" xmlns="http://www.w3.org/2000/svg"
 width="500.000000pt" height="358.000000pt" viewBox="0 0 500.000000 358.000000"
 preserveAspectRatio="xMidYMid meet" x="0px" y=>

<g transform="translate(0.000000,358.000000) scale(0.100000,-0.100000)"
fill="#ffd935" stroke="none">
    <path d="M35 3478 c-3 -35 -5 -810 -3 -1723 2 -1364 5 -1666 16 -1692 l14 -33
    84 0 84 0 0 1755 0 1755 -94 0 -94 0 -7 -62z"  fill="none"/>
    <path d="M530 1979 l0 -1562 494 594 495 594 0 952 c1 523 -2 958 -5 967 -5
    14 -58 16 -495 16 l-489 0 0 -1561z"  fill="#e32636"/>
    <path d="M3496 3524 c-3 -9 -6 -440 -6 -959 l0 -943 481 -584 c264 -320 489
    -592 500 -603 19 -19 19 2 19 1543 l0 1562 -494 0 c-441 0 -495 -2 -500 -16z"  fill="#e32636"/>
    <path d="M4780 1785 l0 -1756 88 3 87 3 12 35 c9 27 12 442 12 1721 1 928 -2
    1701 -5 1718 l-6 31 -94 0 -94 0 0 -1755z" fill="#e32636"/>
    <path d="M2500 2831 c0 -6 4 -13 10 -16 6 -3 7 1 4 9 -7 18 -14 21 -14 7z"  fill="#e32636"/>
    <path d="M1668 1102 c-465 -559 -856 -1029 -868 -1044 l-21 -28 593 0 593 0
    265 460 c145 253 267 460 270 460 3 0 125 -207 270 -460 l265 -460 608 0 609
    0 -28 33 c-15 17 -403 488 -862 1045 -459 556 -837 1012 -841 1012 -3 0 -387
    -458 -853 -1018z"  fill="#e32636"/>
</g>
</svg>
